<svg id="visual" viewBox="0 0 900 200" width="900" height="200" xmlns="http://www.w3.org/2000/svg" xmlns:xlink="http://www.w3.org/1999/xlink" version="1.1"><rect x="0" y="0" width="900" height="200" fill="#000000"></rect><path d="M0 96L9.3 98C18.7 100 37.3 104 56.2 102.3C75 100.7 94 93.3 112.8 88.8C131.7 84.3 150.3 82.7 169 85.7C187.7 88.7 206.3 96.3 225 96.8C243.7 97.3 262.3 90.7 281.2 91.5C300 92.3 319 100.7 337.8 105.3C356.7 110 375.3 111 394 109.2C412.7 107.3 431.3 102.7 450 99.2C468.7 95.7 487.3 93.3 506.2 95.8C525 98.3 544 105.7 562.8 108.5C581.7 111.3 600.3 109.7 619 110.7C637.7 111.7 656.3 115.3 675 111C693.7 106.7 712.3 94.3 731.2 91.3C750 88.3 769 94.7 787.8 99.2C806.7 103.7 825.3 106.3 844 103.2C862.7 100 881.3 91 890.7 86.5L900 82L900 201L890.7 201C881.3 201 862.7 201 844 201C825.3 201 806.7 201 787.8 201C769 201 750 201 731.2 201C712.3 201 693.7 201 675 201C656.3 201 637.7 201 619 201C600.3 201 581.7 201 562.8 201C544 201 525 201 506.2 201C487.3 201 468.7 201 450 201C431.3 201 412.7 201 394 201C375.3 201 356.7 201 337.8 201C319 201 300 201 281.2 201C262.3 201 243.7 201 225 201C206.3 201 187.7 201 169 201C150.3 201 131.7 201 112.8 201C94 201 75 201 56.2 201C37.3 201 18.7 201 9.3 201L0 201Z" fill="#FFFFFF" stroke-linecap="round" stroke-linejoin="miter"></path></svg>