<svg id="visual" viewBox="0 0 1080 50" width="1080" height="50" xmlns="http://www.w3.org/2000/svg" xmlns:xlink="http://www.w3.org/1999/xlink" version="1.1"><rect x="0" y="0" width="1080" height="50" fill="#000000"></rect><path d="M0 7L8.2 7.8C16.3 8.7 32.7 10.3 49 11.7C65.3 13 81.7 14 98 14.8C114.3 15.7 130.7 16.3 147 15.2C163.3 14 179.7 11 196 9.5C212.3 8 228.7 8 245.2 8.7C261.7 9.3 278.3 10.7 294.8 12.5C311.3 14.3 327.7 16.7 344 15.3C360.3 14 376.7 9 393 8.5C409.3 8 425.7 12 442 14.7C458.3 17.3 474.7 18.7 491 16.7C507.3 14.7 523.7 9.3 540 9.2C556.3 9 572.7 14 589 14.8C605.3 15.7 621.7 12.3 638 9.7C654.3 7 670.7 5 687 5.2C703.3 5.3 719.7 7.7 736 10C752.3 12.3 768.7 14.7 785.2 14.5C801.7 14.3 818.3 11.7 834.8 9.8C851.3 8 867.7 7 884 7.5C900.3 8 916.7 10 933 12.3C949.3 14.7 965.7 17.3 982 17.8C998.3 18.3 1014.7 16.7 1031 15C1047.3 13.3 1063.7 11.7 1071.8 10.8L1080 10L1080 0L1071.8 0C1063.7 0 1047.3 0 1031 0C1014.7 0 998.3 0 982 0C965.7 0 949.3 0 933 0C916.7 0 900.3 0 884 0C867.7 0 851.3 0 834.8 0C818.3 0 801.7 0 785.2 0C768.7 0 752.3 0 736 0C719.7 0 703.3 0 687 0C670.7 0 654.3 0 638 0C621.7 0 605.3 0 589 0C572.7 0 556.3 0 540 0C523.7 0 507.3 0 491 0C474.7 0 458.3 0 442 0C425.7 0 409.3 0 393 0C376.7 0 360.3 0 344 0C327.7 0 311.3 0 294.8 0C278.3 0 261.7 0 245.2 0C228.7 0 212.3 0 196 0C179.7 0 163.3 0 147 0C130.7 0 114.3 0 98 0C81.7 0 65.3 0 49 0C32.7 0 16.3 0 8.2 0L0 0Z" fill="#ffffff" stroke-linecap="round" stroke-linejoin="miter"></path></svg>