<svg id="visual" viewBox="0 0 900 300" width="900" height="300" xmlns="http://www.w3.org/2000/svg" xmlns:xlink="http://www.w3.org/1999/xlink" version="1.1"><rect x="0" y="0" width="900" height="300" fill="#000000"></rect><path d="M0 111L15 115.3C30 119.7 60 128.3 90 125.7C120 123 150 109 180 109.8C210 110.7 240 126.3 270 132.2C300 138 330 134 360 128.7C390 123.3 420 116.7 450 117.7C480 118.7 510 127.3 540 125.2C570 123 600 110 630 105C660 100 690 103 720 108.3C750 113.7 780 121.3 810 121.5C840 121.7 870 114.3 885 110.7L900 107L900 301L885 301C870 301 840 301 810 301C780 301 750 301 720 301C690 301 660 301 630 301C600 301 570 301 540 301C510 301 480 301 450 301C420 301 390 301 360 301C330 301 300 301 270 301C240 301 210 301 180 301C150 301 120 301 90 301C60 301 30 301 15 301L0 301Z" fill="#c62368"></path><path d="M0 146L15 144.2C30 142.3 60 138.7 90 138.3C120 138 150 141 180 145.2C210 149.3 240 154.7 270 158.5C300 162.3 330 164.7 360 165C390 165.3 420 163.7 450 157.2C480 150.7 510 139.3 540 140.2C570 141 600 154 630 155C660 156 690 145 720 142.2C750 139.3 780 144.7 810 143.8C840 143 870 136 885 132.5L900 129L900 301L885 301C870 301 840 301 810 301C780 301 750 301 720 301C690 301 660 301 630 301C600 301 570 301 540 301C510 301 480 301 450 301C420 301 390 301 360 301C330 301 300 301 270 301C240 301 210 301 180 301C150 301 120 301 90 301C60 301 30 301 15 301L0 301Z" fill="#d23467"></path><path d="M0 162L15 166.5C30 171 60 180 90 179.8C120 179.7 150 170.3 180 166.7C210 163 240 165 270 169C300 173 330 179 360 182.8C390 186.7 420 188.3 450 184.3C480 180.3 510 170.7 540 169.5C570 168.3 600 175.7 630 176.8C660 178 690 173 720 170.3C750 167.7 780 167.3 810 166C840 164.7 870 162.3 885 161.2L900 160L900 301L885 301C870 301 840 301 810 301C780 301 750 301 720 301C690 301 660 301 630 301C600 301 570 301 540 301C510 301 480 301 450 301C420 301 390 301 360 301C330 301 300 301 270 301C240 301 210 301 180 301C150 301 120 301 90 301C60 301 30 301 15 301L0 301Z" fill="#de4467"></path><path d="M0 201L15 201.3C30 201.7 60 202.3 90 203.8C120 205.3 150 207.7 180 208.7C210 209.7 240 209.3 270 209.8C300 210.3 330 211.7 360 209.3C390 207 420 201 450 200.8C480 200.7 510 206.3 540 207.3C570 208.3 600 204.7 630 201.5C660 198.3 690 195.7 720 198.5C750 201.3 780 209.7 810 209.3C840 209 870 200 885 195.5L900 191L900 301L885 301C870 301 840 301 810 301C780 301 750 301 720 301C690 301 660 301 630 301C600 301 570 301 540 301C510 301 480 301 450 301C420 301 390 301 360 301C330 301 300 301 270 301C240 301 210 301 180 301C150 301 120 301 90 301C60 301 30 301 15 301L0 301Z" fill="#e85467"></path><path d="M0 229L15 230.7C30 232.3 60 235.7 90 238.3C120 241 150 243 180 240C210 237 240 229 270 229.2C300 229.3 330 237.7 360 239.7C390 241.7 420 237.3 450 233.3C480 229.3 510 225.7 540 225.7C570 225.7 600 229.3 630 233.8C660 238.3 690 243.7 720 243C750 242.3 780 235.7 810 233.7C840 231.7 870 234.3 885 235.7L900 237L900 301L885 301C870 301 840 301 810 301C780 301 750 301 720 301C690 301 660 301 630 301C600 301 570 301 540 301C510 301 480 301 450 301C420 301 390 301 360 301C330 301 300 301 270 301C240 301 210 301 180 301C150 301 120 301 90 301C60 301 30 301 15 301L0 301Z" fill="#f16367"></path><path d="M0 261L15 263C30 265 60 269 90 270.8C120 272.7 150 272.3 180 269.2C210 266 240 260 270 258.8C300 257.7 330 261.3 360 261.5C390 261.7 420 258.3 450 260.3C480 262.3 510 269.7 540 272.7C570 275.7 600 274.3 630 270.8C660 267.3 690 261.7 720 259C750 256.3 780 256.7 810 257.2C840 257.7 870 258.3 885 258.7L900 259L900 301L885 301C870 301 840 301 810 301C780 301 750 301 720 301C690 301 660 301 630 301C600 301 570 301 540 301C510 301 480 301 450 301C420 301 390 301 360 301C330 301 300 301 270 301C240 301 210 301 180 301C150 301 120 301 90 301C60 301 30 301 15 301L0 301Z" fill="#fa7268"></path></svg>