<svg id="visual" viewBox="0 0 900 300" width="900" height="300" xmlns="http://www.w3.org/2000/svg" xmlns:xlink="http://www.w3.org/1999/xlink" version="1.1"><rect x="0" y="0" width="900" height="300" fill="#000000"></rect><path d="M0 185L15 181.3C30 177.7 60 170.3 90 167.5C120 164.7 150 166.3 180 171.7C210 177 240 186 270 187.2C300 188.3 330 181.7 360 176.3C390 171 420 167 450 166.2C480 165.3 510 167.7 540 173C570 178.3 600 186.7 630 191.8C660 197 690 199 720 200C750 201 780 201 810 199C840 197 870 193 885 191L900 189L900 0L885 0C870 0 840 0 810 0C780 0 750 0 720 0C690 0 660 0 630 0C600 0 570 0 540 0C510 0 480 0 450 0C420 0 390 0 360 0C330 0 300 0 270 0C240 0 210 0 180 0C150 0 120 0 90 0C60 0 30 0 15 0L0 0Z" fill="#c62368"></path><path d="M0 153L15 151.5C30 150 60 147 90 147.3C120 147.7 150 151.3 180 154.8C210 158.3 240 161.7 270 164.3C300 167 330 169 360 163.2C390 157.3 420 143.7 450 143.3C480 143 510 156 540 157.5C570 159 600 149 630 142.5C660 136 690 133 720 134.2C750 135.3 780 140.7 810 146.7C840 152.7 870 159.3 885 162.7L900 166L900 0L885 0C870 0 840 0 810 0C780 0 750 0 720 0C690 0 660 0 630 0C600 0 570 0 540 0C510 0 480 0 450 0C420 0 390 0 360 0C330 0 300 0 270 0C240 0 210 0 180 0C150 0 120 0 90 0C60 0 30 0 15 0L0 0Z" fill="#d23467"></path><path d="M0 131L15 127.7C30 124.3 60 117.7 90 115C120 112.3 150 113.7 180 114.8C210 116 240 117 270 115.5C300 114 330 110 360 111.5C390 113 420 120 450 120.7C480 121.3 510 115.7 540 112.2C570 108.7 600 107.3 630 106.8C660 106.3 690 106.7 720 110.8C750 115 780 123 810 127.2C840 131.3 870 131.7 885 131.8L900 132L900 0L885 0C870 0 840 0 810 0C780 0 750 0 720 0C690 0 660 0 630 0C600 0 570 0 540 0C510 0 480 0 450 0C420 0 390 0 360 0C330 0 300 0 270 0C240 0 210 0 180 0C150 0 120 0 90 0C60 0 30 0 15 0L0 0Z" fill="#de4467"></path><path d="M0 90L15 92.5C30 95 60 100 90 103C120 106 150 107 180 105.5C210 104 240 100 270 99.5C300 99 330 102 360 100.5C390 99 420 93 450 93.7C480 94.3 510 101.7 540 103.8C570 106 600 103 630 100.7C660 98.3 690 96.7 720 95.3C750 94 780 93 810 92.3C840 91.7 870 91.3 885 91.2L900 91L900 0L885 0C870 0 840 0 810 0C780 0 750 0 720 0C690 0 660 0 630 0C600 0 570 0 540 0C510 0 480 0 450 0C420 0 390 0 360 0C330 0 300 0 270 0C240 0 210 0 180 0C150 0 120 0 90 0C60 0 30 0 15 0L0 0Z" fill="#e85467"></path><path d="M0 63L15 63.3C30 63.7 60 64.3 90 64.3C120 64.3 150 63.7 180 64.8C210 66 240 69 270 67.8C300 66.7 330 61.3 360 58.8C390 56.3 420 56.7 450 56.7C480 56.7 510 56.3 540 59.7C570 63 600 70 630 72.3C660 74.7 690 72.3 720 69.5C750 66.7 780 63.3 810 63.5C840 63.7 870 67.3 885 69.2L900 71L900 0L885 0C870 0 840 0 810 0C780 0 750 0 720 0C690 0 660 0 630 0C600 0 570 0 540 0C510 0 480 0 450 0C420 0 390 0 360 0C330 0 300 0 270 0C240 0 210 0 180 0C150 0 120 0 90 0C60 0 30 0 15 0L0 0Z" fill="#f16367"></path><path d="M0 46L15 42.2C30 38.3 60 30.7 90 26.8C120 23 150 23 180 26.3C210 29.7 240 36.3 270 39.8C300 43.3 330 43.7 360 43.8C390 44 420 44 450 44.2C480 44.3 510 44.7 540 43.3C570 42 600 39 630 38.7C660 38.3 690 40.7 720 39.5C750 38.3 780 33.7 810 33C840 32.3 870 35.7 885 37.3L900 39L900 0L885 0C870 0 840 0 810 0C780 0 750 0 720 0C690 0 660 0 630 0C600 0 570 0 540 0C510 0 480 0 450 0C420 0 390 0 360 0C330 0 300 0 270 0C240 0 210 0 180 0C150 0 120 0 90 0C60 0 30 0 15 0L0 0Z" fill="#fa7268"></path></svg>